<svg xmlns="http://www.w3.org/2000/svg" fill="none" viewBox="0 0 24 24" focusable="false" width="24" height="24" data-testid="systemTimeOutline"><path fill="#74767B" fill-rule="evenodd" d="M12 3C7.02944 3 3 7.02944 3 12C3 16.9706 7.02944 21 12 21C16.9706 21 21 16.9706 21 12C21 7.02944 16.9706 3 12 3ZM4.3 12C4.3 7.74741 7.74741 4.3 12 4.3C16.2526 4.3 19.7 7.74741 19.7 12C19.7 16.2526 16.2526 19.7 12 19.7C7.74741 19.7 4.3 16.2526 4.3 12ZM12.65 8.15343C12.65 7.79445 12.359 7.50344 12 7.50344C11.641 7.50344 11.35 7.79445 11.35 8.15343L11.35 12.6534C11.35 13.0124 11.641 13.3034 12 13.3034L16 13.3034C16.359 13.3034 16.65 13.0124 16.65 12.6534C16.65 12.2945 16.359 12.0034 16 12.0034L12.65 12.0034L12.65 8.15343Z"></path></svg>